<svg width="1080" height="1080" viewBox="0 0 1080 1080" fill="none" xmlns="http://www.w3.org/2000/svg">
<circle cx="539.5" cy="540.5" r="539.5" fill="white"/>
<path d="M540.415 131C562.838 131 584.343 139.908 600.199 155.763C616.054 171.619 624.962 193.124 624.962 215.547C624.962 237.97 616.054 259.475 600.199 275.331C584.343 291.186 562.838 300.094 540.415 300.094C517.992 300.094 496.487 291.186 480.631 275.331C464.776 259.475 455.868 237.97 455.868 215.547C455.868 193.124 464.776 171.619 480.631 155.763C496.487 139.908 517.992 131 540.415 131ZM356.374 348.104C361.357 328.477 379.021 312.172 401.969 312.172C420.54 312.172 436.09 323.042 443.79 337.838C461.907 372.864 498.443 396.719 540.415 396.719C582.386 396.719 618.923 372.864 637.04 337.838C644.74 323.042 660.29 312.172 678.86 312.172C701.96 312.172 719.624 328.477 724.455 348.104C735.024 390.076 773.07 421.026 818.212 421.026C834.517 421.026 849.917 416.95 863.203 409.854C875.885 403.211 891.737 403.06 904.872 411.213C924.499 423.291 930.689 448.957 918.762 468.584L757.368 734.906H733.665H672.67H408.159H347.165H323.462L162.068 468.584C150.14 448.957 156.33 423.291 175.957 411.213C189.092 403.211 204.945 403.211 217.627 409.854C231.064 416.95 246.313 421.026 262.618 421.026C307.76 421.026 345.806 390.076 356.374 348.104ZM323.009 783.219H757.821L820.325 845.723C826.666 852.064 830.29 860.821 830.29 869.879C830.29 888.751 815.041 904 796.169 904H284.661C265.789 904 250.54 888.751 250.54 869.879C250.54 860.821 254.163 852.064 260.504 845.723L323.009 783.219Z" fill="black"/>
</svg>
